<mxfile host="app.diagrams.net" modified="2023-10-25T10:43:54.183Z" agent="Mozilla/5.0 (Windows NT 10.0; Win64; x64) AppleWebKit/537.36 (KHTML, like Gecko) Chrome/118.0.0.0 Safari/537.36 Edg/118.0.2088.61" etag="xbuDPLV-uFEYg2yqaSyH" version="22.0.8" type="github">
  <diagram name="第 1 页" id="NLoXYbT1jdfY4DKMpZzK">
    <mxGraphModel dx="1233" dy="975" grid="0" gridSize="10" guides="1" tooltips="1" connect="1" arrows="1" fold="1" page="1" pageScale="1" pageWidth="10000" pageHeight="10000" math="0" shadow="0">
      <root>
        <mxCell id="0" />
        <mxCell id="1" parent="0" />
      </root>
    </mxGraphModel>
  </diagram>
</mxfile>
